#!OML:ASF F:\VICON\USERDATA\INSTALL\Justin_Nancy\Justin_Nancy.ASF
:FULLY-SPECIFIED
:DEGREES
127
root 1.34765 17.2374 -8.93006 -2.48337 3.57708 5.44908
lowerback 6.93708 -1.67221 -7.01279
upperback 1.34613 -2.7018 1.25523
thorax -2.10456 -1.3089 5.47639
lowerneck -17.3676 -2.65827 -9.76692
upperneck 17.8134 -1.82669 3.66739
head 8.5555 -1.14651 2.61856
rclavicle -1.33186e-014 1.74931e-014
rhumerus -41.1693 -23.9329 -70.5782
rradius 23.4166
rwrist 13.2457
rhand -21.292 14.2082
rfingers 7.12502
rthumb 5.09242 -15.7106
lclavicle -1.33186e-014 1.74931e-014
lhumerus -22.5733 3.49174 85.7757
lradius 36.5645
lwrist -4.34131
lhand -17.363 26.6913
lfingers 7.12502
lthumb 8.88508 56.4842
rfemur -24.1345 2.0129 14.7246
rtibia 19.5332
rfoot 3.16635 -5.39657
rtoes -6.82679
lfemur 9.19579 -5.11646 -30.1364
ltibia 28.4369
lfoot -14.525 -0.834729
ltoes -13.5897
128
root 1.32069 17.2627 -8.75411 -2.73125 3.75529 4.82808
lowerback 6.94721 -1.7671 -6.51577
upperback 1.37591 -2.78612 1.48053
thorax -2.07987 -1.35553 5.43733
lowerneck -17.4367 -2.5642 -9.65307
upperneck 18.1297 -1.65929 3.37557
head 8.6611 -1.09731 2.52401
rclavicle -1.19768e-014 9.54166e-015
rhumerus -41.3268 -24.1623 -70.2847
rradius 23.3936
rwrist 13.4291
rhand -21.0103 14.2943
rfingers 7.12502
rthumb 5.36437 -15.6178
lclavicle -1.19768e-014 9.54166e-015
lhumerus -22.8216 3.99617 85.7635
lradius 36.4045
lwrist -4.43411
lhand -17.2851 27.2494
lfingers 7.12502
lthumb 8.96026 57.0391
rfemur -23.7645 1.83048 15.6181
rtibia 20.2308
rfoot 3.63001 -5.38117
rtoes -5.76678
lfemur 9.16022 -5.0906 -29.225
ltibia 29.7938
lfoot -13.6195 -1.72263
ltoes -16.1924
129
root 1.30016 17.2832 -8.58749 -2.86737 3.73131 4.28036
lowerback 6.98445 -1.83934 -6.00996
upperback 1.25353 -2.84533 1.68331
thorax -2.23448 -1.37885 5.37341
lowerneck -17.0578 -2.40895 -9.72055
upperneck 18.2613 -1.45146 3.29232
head 8.6244 -1.0188 2.5349
rclavicle -2.3556e-014 -2.54444e-014
rhumerus -41.6246 -24.0654 -70.0188
rradius 23.3945
rwrist 13.4102
rhand -20.5618 14.435
rfingers 7.12502
rthumb 5.79741 -15.4656
lclavicle -2.3556e-014 -2.54444e-014
lhumerus -23.2473 4.56239 85.6813
lradius 36.1333
lwrist -4.58045
lhand -17.0126 28.8704
lfingers 7.12502
lthumb 9.22321 58.6487
rfemur -23.4911 1.52551 16.4733
rtibia 20.9014
rfoot 3.94955 -5.0746
rtoes -3.89483
lfemur 8.80546 -4.93677 -28.4156
ltibia 31.4561
lfoot -12.5169 -2.46918
ltoes -18.9015
130
root 1.28183 17.2944 -8.41988 -3.10221 3.6979 3.95033
lowerback 7.0699 -1.90144 -5.72663
upperback 1.18552 -2.90942 1.82524
thorax -2.35109 -1.40667 5.37289
lowerneck -16.577 -2.28878 -9.71652
upperneck 18.2098 -1.3014 3.11168
head 8.51035 -0.968763 2.4913
rclavicle 3.38431e-014 -1.74931e-014
rhumerus -41.8471 -24.0213 -69.7793
rradius 23.3213
rwrist 13.5883
rhand -20.6656 14.4115
rfingers 7.12502
rthumb 5.69717 -15.4919
lclavicle 3.38431e-014 -1.74931e-014
lhumerus -23.65 5.17348 85.6425
lradius 35.8323
lwrist -4.62668
lhand -17.2939 28.7903
lfingers 7.12502
lthumb 8.95171 58.5804
rfemur -23.0461 1.30174 17.0405
rtibia 21.58
rfoot 4.41271 -4.367
rtoes -4.14387
lfemur 8.44313 -4.59979 -27.7886
ltibia 33.3123
lfoot -11.2976 -3.37632
ltoes -19.8675
131
root 1.25999 17.3082 -8.25471 -3.34278 3.65146 3.55138
lowerback 7.18101 -1.90369 -5.41108
upperback 1.18202 -2.89002 1.98142
thorax -2.427 -1.39634 5.36206
lowerneck -16.4697 -2.2539 -9.54643
upperneck 18.2731 -1.2352 2.76505
head 8.50625 -0.964182 2.35402
rclavicle -1.62506e-014 2.22639e-014
rhumerus -41.8379 -24.2776 -69.528
rradius 23.0709
rwrist 13.9634
rhand -21.2304 13.9067
rfingers 7.12502
rthumb 5.15189 -16.0107
lclavicle -1.62506e-014 2.22639e-014
lhumerus -23.9724 5.57377 85.6539
lradius 35.5332
lwrist -4.73313
lhand -17.6459 27.6359
lfingers 7.12502
lthumb 8.61206 57.4403
rfemur -22.5237 1.3111 17.6557
rtibia 22.1885
rfoot 4.77182 -3.15769
rtoes -7.5432
lfemur 7.8744 -4.19885 -26.9809
ltibia 35.3054
lfoot -9.71612 -4.60227
ltoes -20.0743
132
root 1.23696 17.3256 -8.09392 -3.5159 3.37627 3.33793
lowerback 7.23329 -1.80036 -5.29674
upperback 1.2153 -2.7427 2.089
thorax -2.44097 -1.32389 5.40007
lowerneck -16.3853 -2.26712 -9.47772
upperneck 18.2478 -1.23649 2.55898
head 8.482 -0.981345 2.27226
rclavicle 2.70844e-015 1.03368e-014
rhumerus -41.7294 -24.4575 -69.3593
rradius 22.9858
rwrist 13.9655
rhand -21.2169 13.7894
rfingers 7.12502
rthumb 5.16494 -16.1277
lclavicle 2.70844e-015 1.03368e-014
lhumerus -24.1241 5.9962 85.66
lradius 35.0672
lwrist -4.92295
lhand -16.6356 31.038
lfingers 7.12502
lthumb 9.58699 60.7998
rfemur -22.1088 1.51821 18.0993
rtibia 22.7889
rfoot 4.54069 -2.22393
rtoes -8.75686
lfemur 7.09416 -3.58434 -26.3326
ltibia 37.3291
lfoot -7.69664 -5.81656
ltoes -19.5102
133
root 1.21073 17.3389 -7.93452 -3.71145 3.11924 2.91647
lowerback 7.22263 -1.72207 -4.97384
upperback 1.33549 -2.60747 2.23754
thorax -2.33551 -1.26498 5.35792
lowerneck -16.3937 -2.25757 -9.47485
upperneck 18.2443 -1.2212 2.55009
head 8.48128 -0.974703 2.27058
rclavicle -1.2424e-015 8.74653e-015
rhumerus -41.5692 -24.5095 -69.3668
rradius 23.0953
rwrist 13.7266
rhand -20.7437 14.5278
rfingers 7.12502
rthumb 5.62183 -15.3776
lclavicle -1.2424e-015 8.74653e-015
lhumerus -24.2442 6.19905 85.6999
lradius 34.7328
lwrist -4.77725
lhand -17.308 26.0064
lfingers 7.12502
lthumb 8.93816 55.797
rfemur -21.6973 1.69027 18.7737
rtibia 23.3984
rfoot 4.12334 -2.11915
rtoes -6.08064
lfemur 6.30812 -2.82304 -25.3657
ltibia 39.3534
lfoot -5.58588 -7.04712
ltoes -20.1309
134
root 1.18139 17.352 -7.76981 -3.85328 3.28817 2.75465
lowerback 7.07076 -1.7865 -4.9348
upperback 1.43699 -2.68195 2.26685
thorax -2.13625 -1.31149 5.36236
lowerneck -16.3702 -2.26961 -9.33286
upperneck 18.3064 -1.25108 2.42981
head 8.49838 -0.993134 2.20341
rclavicle 7.95139e-016 -1.43125e-014
rhumerus -41.4875 -24.275 -69.6216
rradius 23.3191
rwrist 13.3152
rhand -20.8824 14.4477
rfingers 7.12502
rthumb 5.48791 -15.4612
lclavicle 7.95139e-016 -1.43125e-014
lhumerus -24.5176 6.39606 85.6128
lradius 34.5683
lwrist -4.61938
lhand -17.11 28.0029
lfingers 7.12502
lthumb 9.12918 57.7853
rfemur -21.2489 1.39822 19.1497
rtibia 24.0145
rfoot 3.66368 -2.12254
rtoes -4.06859
lfemur 5.46865 -2.30419 -24.6108
ltibia 41.3146
lfoot -2.9563 -8.39614
ltoes -20.2902
135
root 1.15362 17.3722 -7.60287 -4.02108 3.63422 2.88865
lowerback 7.02549 -1.85768 -5.1709
upperback 1.49451 -2.79338 2.19261
thorax -2.02912 -1.37106 5.423
lowerneck -16.3939 -2.30197 -9.34495
upperneck 18.4866 -1.31411 2.54502
head 8.56809 -1.01598 2.23853
rclavicle -3.02401e-014 6.36111e-015
rhumerus -41.4882 -24.3667 -69.6717
rradius 23.4495
rwrist 13.4842
rhand -21.2091 13.6041
rfingers 7.12502
rthumb 5.17246 -16.3128
lclavicle -3.02401e-014 6.36111e-015
lhumerus -24.7597 6.74203 85.512
lradius 34.239
lwrist -5.09983
lhand -17.2979 28.6995
lfingers 7.12502
lthumb 8.94787 58.4898
rfemur -20.6138 1.06573 19.1564
rtibia 24.4855
rfoot 2.9854 -2.20624
rtoes -2.68625
lfemur 4.60603 -1.91331 -24.1991
ltibia 43.2713
lfoot 0.0711567 -9.49827
ltoes -19.3775
136
root 1.12392 17.3973 -7.43596 -4.19816 3.93578 2.78952
lowerback 7.07088 -1.90175 -5.2071
upperback 1.51943 -2.8559 2.21942
thorax -2.01707 -1.40321 5.47777
lowerneck -16.4879 -2.30837 -9.49429
upperneck 18.6656 -1.32663 2.79056
head 8.64868 -1.01047 2.34683
rclavicle 3.62782e-015 -1.59028e-014
rhumerus -41.4735 -24.2808 -69.744
rradius 23.5633
rwrist 13.3338
rhand -21.3125 13.7244
rfingers 7.12502
rthumb 5.07262 -16.1948
lclavicle 3.62782e-015 -1.59028e-014
lhumerus -24.9638 6.9975 85.5179
lradius 33.7402
lwrist -5.50542
lhand -17.6949 28.7229
lfingers 7.12502
lthumb 8.56474 58.5292
rfemur -19.8667 0.943171 19.4183
rtibia 24.729
rfoot 2.39352 -2.36693
rtoes -1.81119
lfemur 3.63308 -1.50354 -23.5271
ltibia 45.2807
lfoot 3.00445 -10.5474
ltoes -18.4284
137
root 1.08945 17.423 -7.27718 -4.36072 4.34745 2.41335
lowerback 7.04256 -2.00328 -5.06971
upperback 1.59824 -2.97564 2.35572
thorax -1.90336 -1.46961 5.54778
lowerneck -16.5942 -2.36354 -9.69856
upperneck 18.8619 -1.3923 3.04146
head 8.7422 -1.03357 2.45994
rclavicle -6.58474e-015 3.18055e-015
rhumerus -41.2533 -23.9023 -70.0336
rradius 23.7896
rwrist 12.7925
rhand -21.1503 14.1484
rfingers 7.12502
rthumb 5.22924 -15.7671
lclavicle -6.58474e-015 3.18055e-015
lhumerus -25.1131 7.10823 85.5368
lradius 33.3409
lwrist -5.57417
lhand -17.3706 29.7985
lfingers 7.12502
lthumb 8.87773 59.5918
rfemur -19.001 1.04052 19.9702
rtibia 24.5802
rfoot 2.09016 -2.90031
rtoes -2.2354
lfemur 2.48635 -1.22093 -22.5442
ltibia 47.3928
lfoot 5.65766 -11.8527
ltoes -16.8921
138
root 1.05933 17.4569 -7.12614 -4.4297 4.65954 1.89325
lowerback 7.01893 -2.07418 -4.69325
upperback 1.60673 -3.03813 2.5025
thorax -1.88524 -1.50303 5.49114
lowerneck -16.6502 -2.43866 -9.63937
upperneck 19.1057 -1.49753 3.0047
head 8.84243 -1.08822 2.42682
rclavicle -2.16427e-014 -8.74653e-015
rhumerus -41.0371 -23.5793 -70.3377
rradius 23.9656
rwrist 12.3628
rhand -21.1503 14.4012
rfingers 7.12502
rthumb 5.22919 -15.5143
lclavicle -2.16427e-014 -8.74653e-015
lhumerus -25.2612 6.96936 85.5843
lradius 32.9064
lwrist -5.55727
lhand -16.7447 29.7022
lfingers 7.12502
lthumb 9.48169 59.4689
rfemur -18.0846 1.34585 20.6498
rtibia 24.0717
rfoot 1.9914 -3.56702
rtoes -2.02249
lfemur 1.13739 -0.922429 -21.4635
ltibia 49.6272
lfoot 8.25292 -12.9551
ltoes -14.7259
139
root 1.0331 17.4963 -6.97289 -4.55582 4.65187 1.15703
lowerback 7.08146 -2.04601 -4.04935
upperback 1.55434 -2.9509 2.70432
thorax -2.00837 -1.45675 5.3358
lowerneck -16.684 -2.50328 -9.53646
upperneck 19.3865 -1.58252 2.87901
head 8.94954 -1.14066 2.35854
rclavicle 2.37051e-014 -1.27222e-014
rhumerus -40.9384 -23.3848 -70.447
rradius 23.9645
rwrist 12.043
rhand -21.1899 14.8886
rfingers 7.12502
rthumb 5.19099 -15.0278
lclavicle 2.37051e-014 -1.27222e-014
lhumerus -25.4372 7.06444 85.5542
lradius 32.2561
lwrist -6.00875
lhand -16.3472 28.4459
lfingers 7.12502
lthumb 9.86519 58.1948
rfemur -17.0259 1.64579 21.6316
rtibia 23.3545
rfoot 1.96816 -3.90437
rtoes -1.04344
lfemur -0.242157 -0.501855 -20.2101
ltibia 51.9293
lfoot 11.0701 -13.4776
ltoes -12.6276
140
root 1.00605 17.5223 -6.82181 -4.77186 4.72431 0.355431
lowerback 7.2511 -2.08395 -3.41049
upperback 1.48485 -2.95109 2.96865
thorax -2.19379 -1.45296 5.26133
lowerneck -16.6633 -2.51274 -9.62724
upperneck 19.6956 -1.57573 2.88768
head 9.05355 -1.15099 2.38039
rclavicle 2.36554e-014 -3.97569e-014
rhumerus -40.8465 -22.9761 -70.5818
rradius 24.1122
rwrist 11.7313
rhand -21.4245 15.1737
rfingers 7.12502
rthumb 4.96447 -14.7481
lclavicle 2.36554e-014 -3.97569e-014
lhumerus -25.7452 7.28416 85.5059
lradius 31.6494
lwrist -6.59532
lhand -15.68 29.0527
lfingers 7.12502
lthumb 10.5089 58.7701
rfemur -15.8388 1.89929 22.6709
rtibia 22.543
rfoot 1.94049 -4.32766
rtoes 0.116507
lfemur -1.55212 -0.183404 -18.9182
ltibia 54.2502
lfoot 13.512 -13.8246
ltoes -11.3538
